<?xml version="1.0" encoding="UTF-8" standalone="no"?>
<!-- Created with Inkscape (http://www.inkscape.org/) -->

<svg
   xmlns:dc="http://purl.org/dc/elements/1.1/"
   xmlns:cc="http://creativecommons.org/ns#"
   xmlns:rdf="http://www.w3.org/1999/02/22-rdf-syntax-ns#"
   xmlns:svg="http://www.w3.org/2000/svg"
   xmlns="http://www.w3.org/2000/svg"
   xmlns:sodipodi="http://sodipodi.sourceforge.net/DTD/sodipodi-0.dtd"
   xmlns:inkscape="http://www.inkscape.org/namespaces/inkscape"
   width="210mm"
   height="297mm"
   viewBox="0 0 210 297"
   version="1.1"
   id="svg8"
   inkscape:version="0.92.3 (2405546, 2018-03-11)"
   sodipodi:docname="AA.svg">
  <defs
     id="defs2">
    <inkscape:perspective
       sodipodi:type="inkscape:persp3d"
       inkscape:vp_x="0 : 148.5 : 1"
       inkscape:vp_y="0 : 1000 : 0"
       inkscape:vp_z="210 : 148.5 : 1"
       inkscape:persp3d-origin="105 : 99 : 1"
       id="perspective18" />
  </defs>
  <sodipodi:namedview
     id="base"
     pagecolor="#ffffff"
     bordercolor="#666666"
     borderopacity="1.0"
     inkscape:pageopacity="0.0"
     inkscape:pageshadow="2"
     inkscape:zoom="0.35"
     inkscape:cx="400"
     inkscape:cy="560"
     inkscape:document-units="mm"
     inkscape:current-layer="layer1"
     showgrid="false"
     inkscape:window-width="1366"
     inkscape:window-height="706"
     inkscape:window-x="-8"
     inkscape:window-y="-8"
     inkscape:window-maximized="1" />
  <metadata
     id="metadata5">
    <rdf:RDF>
      <cc:Work
         rdf:about="">
        <dc:format>image/svg+xml</dc:format>
        <dc:type
           rdf:resource="http://purl.org/dc/dcmitype/StillImage" />
        <dc:title></dc:title>
      </cc:Work>
    </rdf:RDF>
  </metadata>
  <g
     inkscape:label="Capa 1"
     inkscape:groupmode="layer"
     id="layer1">
    <rect
       id="rect10"
       width="88.446419"
       height="32.505951"
       x="27.214287"
       y="69.458336"
       style="stroke-width:0.26458332;fill:#808000" />
    <text
       xml:space="preserve"
       style="font-style:italic;font-variant:normal;font-weight:bold;font-stretch:normal;font-size:50.79999924px;line-height:1.25;font-family:sans-serif;-inkscape-font-specification:'sans-serif Bold Italic';letter-spacing:0px;word-spacing:0px;fill:#000000;fill-opacity:1;stroke:none;stroke-width:0.26458332"
       x="94.494049"
       y="120.86308"
       id="text16"><tspan
         sodipodi:role="line"
         id="tspan14"
         x="94.494049"
         y="120.86308"
         style="font-style:italic;font-variant:normal;font-weight:bold;font-stretch:normal;font-size:50.79999924px;font-family:sans-serif;-inkscape-font-specification:'sans-serif Bold Italic';stroke-width:0.26458332">AA</tspan></text>
    <g
       sodipodi:type="inkscape:box3d"
       id="g20"
       style="fill:#808000"
       inkscape:perspectiveID="#perspective18"
       inkscape:corner0="1.0730991 : 0.17298963 : 0 : 1"
       inkscape:corner7="0.80386546 : 0.16948062 : 0.25 : 1">
      <path
         sodipodi:type="inkscape:box3dside"
         id="path22"
         style="fill:#353564;fill-rule:evenodd;stroke:none;stroke-linejoin:round"
         inkscape:box3dsidetype="6"
         d="m 50.64881,88.932361 v 1.69264 l 17.148558,6.228211 v -1.510487 z"
         points="50.64881,90.625001 67.797368,96.853212 67.797368,95.342725 50.64881,88.932361 " />
      <path
         sodipodi:type="inkscape:box3dside"
         id="path32"
         style="fill:#e9e9ff;fill-rule:evenodd;stroke:none;stroke-linejoin:round"
         inkscape:box3dsidetype="11"
         d="m 67.797368,95.342725 8.887306,-6.968191 v 1.708491 l -8.887306,6.770187 z"
         points="76.684674,88.374534 76.684674,90.083025 67.797368,96.853212 67.797368,95.342725 " />
      <path
         sodipodi:type="inkscape:box3dside"
         id="path24"
         style="fill:#4d4d9f;fill-rule:evenodd;stroke:none;stroke-linejoin:round"
         inkscape:box3dsidetype="5"
         d="m 50.64881,88.932361 7.559524,-8.890692 18.47634,8.332865 -8.887306,6.968191 z"
         points="58.208334,80.041669 76.684674,88.374534 67.797368,95.342725 50.64881,88.932361 " />
      <path
         sodipodi:type="inkscape:box3dside"
         id="path30"
         style="fill:#afafde;fill-rule:evenodd;stroke:none;stroke-linejoin:round"
         inkscape:box3dsidetype="13"
         d="m 50.64881,90.625001 7.559524,-8.63806 18.47634,8.096084 -8.887306,6.770187 z"
         points="58.208334,81.986941 76.684674,90.083025 67.797368,96.853212 50.64881,90.625001 " />
      <path
         sodipodi:type="inkscape:box3dside"
         id="path28"
         style="fill:#d7d7ff;fill-rule:evenodd;stroke:none;stroke-linejoin:round"
         inkscape:box3dsidetype="14"
         d="m 58.208334,80.041669 v 1.945272 l 18.47634,8.096084 v -1.708491 z"
         points="58.208334,81.986941 76.684674,90.083025 76.684674,88.374534 58.208334,80.041669 " />
      <path
         sodipodi:type="inkscape:box3dside"
         id="path26"
         style="fill:#8686bf;fill-rule:evenodd;stroke:none;stroke-linejoin:round"
         inkscape:box3dsidetype="3"
         d="m 50.64881,88.932361 7.559524,-8.890692 v 1.945272 l -7.559524,8.63806 z"
         points="58.208334,80.041669 58.208334,81.986941 50.64881,90.625001 50.64881,88.932361 " />
    </g>
    <g
       sodipodi:type="inkscape:box3d"
       id="g34"
       style="fill:#808000"
       inkscape:perspectiveID="#perspective18"
       inkscape:corner0="0.54873273 : 0.13182642 : 0 : 1"
       inkscape:corner7="0.54873273 : 0.12948708 : 0.25 : 1">
      <path
         sodipodi:type="inkscape:box3dside"
         id="path36"
         style="fill:#353564;fill-rule:evenodd;stroke:none;stroke-linejoin:round"
         inkscape:box3dsidetype="6"
         d="m 67.797368,95.342725 v 1.510487 l 19.764281,7.178218 v -1.30055 z"
         points="67.797368,96.853212 87.561649,104.03143 87.561649,102.73088 67.797368,95.342725 " />
      <path
         sodipodi:type="inkscape:box3dside"
         id="path46"
         style="fill:#e9e9ff;fill-rule:evenodd;stroke:none;stroke-linejoin:round"
         inkscape:box3dsidetype="11"
         d="m 87.561649,102.73088 v 0 1.30055 0 z"
         points="87.561649,102.73088 87.561649,104.03143 87.561649,104.03143 87.561649,102.73088 " />
      <path
         sodipodi:type="inkscape:box3dside"
         id="path38"
         style="fill:#4d4d9f;fill-rule:evenodd;stroke:none;stroke-linejoin:round"
         inkscape:box3dsidetype="5"
         d="m 67.797368,95.342725 v 0 l 19.764281,7.388155 v 0 z"
         points="67.797368,95.342725 87.561649,102.73088 87.561649,102.73088 67.797368,95.342725 " />
      <path
         sodipodi:type="inkscape:box3dside"
         id="path44"
         style="fill:#afafde;fill-rule:evenodd;stroke:none;stroke-linejoin:round"
         inkscape:box3dsidetype="13"
         d="m 67.797368,96.853212 v 0 l 19.764281,7.178218 v 0 z"
         points="67.797368,96.853212 87.561649,104.03143 87.561649,104.03143 67.797368,96.853212 " />
      <path
         sodipodi:type="inkscape:box3dside"
         id="path42"
         style="fill:#d7d7ff;fill-rule:evenodd;stroke:none;stroke-linejoin:round"
         inkscape:box3dsidetype="14"
         d="m 67.797368,95.342725 v 1.510487 l 19.764281,7.178218 v -1.30055 z"
         points="67.797368,96.853212 87.561649,104.03143 87.561649,102.73088 67.797368,95.342725 " />
      <path
         sodipodi:type="inkscape:box3dside"
         id="path40"
         style="fill:#8686bf;fill-rule:evenodd;stroke:none;stroke-linejoin:round"
         inkscape:box3dsidetype="3"
         d="m 67.797368,95.342725 v 0 1.510487 0 z"
         points="67.797368,95.342725 67.797368,96.853212 67.797368,96.853212 67.797368,95.342725 " />
    </g>
    <g
       sodipodi:type="inkscape:box3d"
       id="g48"
       style="fill:#808000"
       inkscape:perspectiveID="#perspective18"
       inkscape:corner0="0.54873273 : 0.12948708 : 0 : 1"
       inkscape:corner7="0.36174158 : 0.089193153 : 0.17217805 : 1">
      <path
         sodipodi:type="inkscape:box3dside"
         id="path50"
         style="fill:#353564;fill-rule:evenodd;stroke:none;stroke-linejoin:round"
         inkscape:box3dsidetype="6"
         d="m 67.797368,96.853212 v 26.017348 l 14.22745,2.56424 v -23.4143 z"
         points="67.797368,122.87056 82.024818,125.4348 82.024818,102.0205 67.797368,96.853212 " />
      <path
         sodipodi:type="inkscape:box3dside"
         id="path60"
         style="fill:#e9e9ff;fill-rule:evenodd;stroke:none;stroke-linejoin:round"
         inkscape:box3dsidetype="11"
         d="m 82.024818,102.0205 9.999165,-5.666043 v 26.268603 l -9.999165,2.81174 z"
         points="92.023983,96.354457 92.023983,122.62306 82.024818,125.4348 82.024818,102.0205 " />
      <path
         sodipodi:type="inkscape:box3dside"
         id="path52"
         style="fill:#4d4d9f;fill-rule:evenodd;stroke:none;stroke-linejoin:round"
         inkscape:box3dsidetype="5"
         d="m 67.797368,96.853212 9.309775,-7.092016 14.91684,6.593261 -9.999165,5.666043 z"
         points="77.107143,89.761196 92.023983,96.354457 82.024818,102.0205 67.797368,96.853212 " />
      <path
         sodipodi:type="inkscape:box3dside"
         id="path58"
         style="fill:#afafde;fill-rule:evenodd;stroke:none;stroke-linejoin:round"
         inkscape:box3dsidetype="13"
         d="m 67.797368,122.87056 9.309775,-3.51937 14.91684,3.27187 -9.999165,2.81174 z"
         points="77.107143,119.35119 92.023983,122.62306 82.024818,125.4348 67.797368,122.87056 " />
      <path
         sodipodi:type="inkscape:box3dside"
         id="path56"
         style="fill:#d7d7ff;fill-rule:evenodd;stroke:none;stroke-linejoin:round"
         inkscape:box3dsidetype="14"
         d="m 77.107143,89.761196 v 29.589994 l 14.91684,3.27187 V 96.354457 Z"
         points="77.107143,119.35119 92.023983,122.62306 92.023983,96.354457 77.107143,89.761196 " />
      <path
         sodipodi:type="inkscape:box3dside"
         id="path54"
         style="fill:#8686bf;fill-rule:evenodd;stroke:none;stroke-linejoin:round"
         inkscape:box3dsidetype="3"
         d="m 67.797368,96.853212 9.309775,-7.092016 v 29.589994 l -9.309775,3.51937 z"
         points="77.107143,89.761196 77.107143,119.35119 67.797368,122.87056 67.797368,96.853212 " />
    </g>
    <g
       sodipodi:type="inkscape:box3d"
       id="g62"
       style="fill:#808000"
       inkscape:perspectiveID="#perspective18"
       inkscape:corner0="1.6711085 : 0.16948062 : 0 : 1"
       inkscape:corner7="0.80386546 : 0.1374558 : 0.25 : 1">
      <path
         sodipodi:type="inkscape:box3dside"
         id="path64"
         style="fill:#353564;fill-rule:evenodd;stroke:none;stroke-linejoin:round"
         inkscape:box3dsidetype="6"
         d="m 39.309524,103.58209 v 11.98934 l 14.608365,2.81816 v -10.96325 z"
         points="39.309524,115.57143 53.917889,118.38959 53.917889,107.42634 39.309524,103.58209 " />
      <path
         sodipodi:type="inkscape:box3dside"
         id="path74"
         style="fill:#e9e9ff;fill-rule:evenodd;stroke:none;stroke-linejoin:round"
         inkscape:box3dsidetype="11"
         d="M 53.917889,107.42634 76.684674,90.083025 v 15.592465 l -22.766785,12.7141 z"
         points="76.684674,90.083025 76.684674,105.67549 53.917889,118.38959 53.917889,107.42634 " />
      <path
         sodipodi:type="inkscape:box3dside"
         id="path66"
         style="fill:#4d4d9f;fill-rule:evenodd;stroke:none;stroke-linejoin:round"
         inkscape:box3dsidetype="5"
         d="m 39.309524,103.58209 18.89881,-21.595149 18.47634,8.096084 -22.766785,17.343315 z"
         points="58.208334,81.986941 76.684674,90.083025 53.917889,107.42634 39.309524,103.58209 " />
      <path
         sodipodi:type="inkscape:box3dside"
         id="path72"
         style="fill:#afafde;fill-rule:evenodd;stroke:none;stroke-linejoin:round"
         inkscape:box3dsidetype="13"
         d="m 39.309524,115.57143 18.89881,-15.831048 18.47634,5.935108 -22.766785,12.7141 z"
         points="58.208334,99.740382 76.684674,105.67549 53.917889,118.38959 39.309524,115.57143 " />
      <path
         sodipodi:type="inkscape:box3dside"
         id="path70"
         style="fill:#d7d7ff;fill-rule:evenodd;stroke:none;stroke-linejoin:round"
         inkscape:box3dsidetype="14"
         d="m 58.208334,81.986941 v 17.753441 l 18.47634,5.935108 V 90.083025 Z"
         points="58.208334,99.740382 76.684674,105.67549 76.684674,90.083025 58.208334,81.986941 " />
      <path
         sodipodi:type="inkscape:box3dside"
         id="path68"
         style="fill:#8686bf;fill-rule:evenodd;stroke:none;stroke-linejoin:round"
         inkscape:box3dsidetype="3"
         d="M 39.309524,103.58209 58.208334,81.986941 V 99.740382 L 39.309524,115.57143 Z"
         points="58.208334,81.986941 58.208334,99.740382 39.309524,115.57143 39.309524,103.58209 " />
    </g>
    <g
       sodipodi:type="inkscape:box3d"
       id="g104"
       style="fill:#808000"
       inkscape:perspectiveID="#perspective18"
       inkscape:corner0="0.94740567 : 0.12948708 : 0 : 1"
       inkscape:corner7="0.94740567 : 0.1081372 : 0.25 : 1">
      <path
         sodipodi:type="inkscape:box3dside"
         id="path106"
         style="fill:#353564;fill-rule:evenodd;stroke:none;stroke-linejoin:round"
         inkscape:box3dsidetype="6"
         d="m 53.917889,107.42634 v 10.96325 l 17.757544,3.42567 v -9.71594 z"
         points="53.917889,118.38959 71.675433,121.81526 71.675433,112.09932 53.917889,107.42634 " />
      <path
         sodipodi:type="inkscape:box3dside"
         id="path116"
         style="fill:#e9e9ff;fill-rule:evenodd;stroke:none;stroke-linejoin:round"
         inkscape:box3dsidetype="11"
         d="m 71.675433,112.09932 v 0 9.71594 0 z"
         points="71.675433,112.09932 71.675433,121.81526 71.675433,121.81526 71.675433,112.09932 " />
      <path
         sodipodi:type="inkscape:box3dside"
         id="path108"
         style="fill:#4d4d9f;fill-rule:evenodd;stroke:none;stroke-linejoin:round"
         inkscape:box3dsidetype="5"
         d="m 53.917889,107.42634 v 0 l 17.757544,4.67298 v 0 z"
         points="53.917889,107.42634 71.675433,112.09932 71.675433,112.09932 53.917889,107.42634 " />
      <path
         sodipodi:type="inkscape:box3dside"
         id="path114"
         style="fill:#afafde;fill-rule:evenodd;stroke:none;stroke-linejoin:round"
         inkscape:box3dsidetype="13"
         d="m 53.917889,118.38959 v 0 l 17.757544,3.42567 v 0 z"
         points="53.917889,118.38959 71.675433,121.81526 71.675433,121.81526 53.917889,118.38959 " />
      <path
         sodipodi:type="inkscape:box3dside"
         id="path112"
         style="fill:#d7d7ff;fill-rule:evenodd;stroke:none;stroke-linejoin:round"
         inkscape:box3dsidetype="14"
         d="m 53.917889,107.42634 v 10.96325 l 17.757544,3.42567 v -9.71594 z"
         points="53.917889,118.38959 71.675433,121.81526 71.675433,112.09932 53.917889,107.42634 " />
      <path
         sodipodi:type="inkscape:box3dside"
         id="path110"
         style="fill:#8686bf;fill-rule:evenodd;stroke:none;stroke-linejoin:round"
         inkscape:box3dsidetype="3"
         d="m 53.917889,107.42634 v 0 10.96325 0 z"
         points="53.917889,107.42634 53.917889,118.38959 53.917889,118.38959 53.917889,107.42634 " />
    </g>
    <g
       sodipodi:type="inkscape:box3d"
       id="g118"
       style="fill:#808000"
       inkscape:perspectiveID="#perspective18"
       inkscape:corner0="0.9563048 : 0.1081372 : 0 : 1"
       inkscape:corner7="0.94740567 : 0.069552133 : 1.1885016 : 1">
      <path
         sodipodi:type="inkscape:box3dside"
         id="path120"
         style="fill:#353564;fill-rule:evenodd;stroke:none;stroke-linejoin:round"
         inkscape:box3dsidetype="6"
         d="M 53.672619,118.52656 V 138.25 l 59.080061,3.87373 v -12.26945 z"
         points="53.672619,138.25 112.75268,142.12373 112.75268,129.85428 53.672619,118.52656 " />
      <path
         sodipodi:type="inkscape:box3dside"
         id="path130"
         style="fill:#e9e9ff;fill-rule:evenodd;stroke:none;stroke-linejoin:round"
         inkscape:box3dsidetype="11"
         d="m 112.75268,129.85428 0.31997,-0.0529 v 12.30427 l -0.31997,0.0181 z"
         points="113.07265,129.80137 113.07265,142.10564 112.75268,142.12373 112.75268,129.85428 " />
      <path
         sodipodi:type="inkscape:box3dside"
         id="path122"
         style="fill:#4d4d9f;fill-rule:evenodd;stroke:none;stroke-linejoin:round"
         inkscape:box3dsidetype="5"
         d="m 53.672619,118.52656 0.24527,-0.13697 59.154761,11.41178 -0.31997,0.0529 z"
         points="53.917889,118.38959 113.07265,129.80137 112.75268,129.85428 53.672619,118.52656 " />
      <path
         sodipodi:type="inkscape:box3dside"
         id="path128"
         style="fill:#afafde;fill-rule:evenodd;stroke:none;stroke-linejoin:round"
         inkscape:box3dsidetype="13"
         d="m 53.672619,138.25 0.24527,-0.0468 59.154761,3.90248 -0.31997,0.0181 z"
         points="53.917889,138.20316 113.07265,142.10564 112.75268,142.12373 53.672619,138.25 " />
      <path
         sodipodi:type="inkscape:box3dside"
         id="path126"
         style="fill:#d7d7ff;fill-rule:evenodd;stroke:none;stroke-linejoin:round"
         inkscape:box3dsidetype="14"
         d="m 53.917889,118.38959 v 19.81357 l 59.154761,3.90248 v -12.30427 z"
         points="53.917889,138.20316 113.07265,142.10564 113.07265,129.80137 53.917889,118.38959 " />
      <path
         sodipodi:type="inkscape:box3dside"
         id="path124"
         style="fill:#8686bf;fill-rule:evenodd;stroke:none;stroke-linejoin:round"
         inkscape:box3dsidetype="3"
         d="m 53.672619,118.52656 0.24527,-0.13697 v 19.81357 l -0.24527,0.0468 z"
         points="53.917889,118.38959 53.917889,138.20316 53.672619,138.25 53.672619,118.52656 " />
    </g>
    <path
       style="fill:#00000b;fill-opacity:0.03921569;stroke-width:2.85714293"
       d="m 340.57143,463.95147 c 0,-1.31388 -6.10714,-3.76877 -13.57143,-5.45532 -7.46429,-1.68655 -18.07143,-4.15867 -23.57143,-5.4936 l -10,-2.42715 -0.77595,-54.87624 -0.77595,-54.87624 16.49024,7.36903 c 9.06963,4.05296 21.13574,9.26109 26.81358,11.57361 9.90677,4.03493 10.39676,4.90705 12.14285,21.61276 1.00074,9.57449 1.81952,31.86773 1.81952,49.54051 0,25.9264 -0.82773,32.44998 -4.28572,33.77693 -2.35714,0.90452 -4.28571,0.56959 -4.28571,-0.74429 z"
       id="path53"
       inkscape:connector-curvature="0"
       transform="scale(0.26458333)" />
    <path
       style="fill:#00000b;fill-opacity:0.03921569;stroke-width:2.85714293"
       d="m 340.57143,464.7982 c 0,-1.57539 -6.75,-4.43959 -15,-6.36488 -8.25,-1.9253 -18.85714,-4.48095 -23.57143,-5.67923 l -8.57143,-2.17869 -0.7762,-54.94921 -0.77621,-54.94922 9.34764,4.01314 c 5.14119,2.20723 17.21513,7.47409 26.83097,11.70414 l 17.48334,7.69099 1.74826,40.50294 c 1.8785,43.52021 1.1695,55.18992 -3.64565,60.00507 -1.91505,1.91505 -3.06929,1.99212 -3.06929,0.20495 z"
       id="path55"
       inkscape:connector-curvature="0"
       transform="scale(0.26458333)" />
    <path
       style="fill:#00000b;fill-opacity:0.03921569;stroke-width:2.85714293"
       d="m 340.57143,464.09927 c 0,-1.51671 -6.42714,-3.64161 -14.28252,-4.722 -7.85539,-1.0804 -15.0027,-3.12962 -15.88291,-4.55382 -0.88021,-1.42422 -4.77914,-2.58948 -8.66429,-2.58948 -3.88515,0 -7.6965,-1.64851 -8.46967,-3.66335 -0.77317,-2.01485 -1.05424,-27.00514 -0.62461,-55.53399 l 0.78114,-51.87063 26.42857,11.66519 26.42857,11.66518 v 49.41447 c 0,29.86101 -1.13058,50.1132 -2.85714,51.18027 -1.57143,0.9712 -2.85714,0.52487 -2.85714,-0.99184 z"
       id="path57"
       inkscape:connector-curvature="0"
       transform="scale(0.26458333)" />
    <path
       style="fill:#00000b;fill-opacity:0.03921569;stroke-width:2.85714293"
       d="m 338.71281,464.35837 c 1.08528,-1.75602 -4.40083,-3.67662 -13.88801,-4.86196 -8.62507,-1.07763 -15.68194,-3.15253 -15.68194,-4.61088 0,-1.45836 -3.66363,-2.65156 -8.1414,-2.65156 h -8.1414 l -0.61757,-56.09194 c -0.49999,-45.41198 0.0981,-55.80331 3.14139,-54.57607 2.06744,0.83373 14.39498,6.34384 27.39455,12.24469 l 23.63557,10.72883 -0.77843,50.04032 c -0.61686,39.65431 -1.60223,50.31439 -4.74756,51.36077 -2.18833,0.72801 -3.16426,0.018 -2.1752,-1.5822 z"
       id="path59"
       inkscape:connector-curvature="0"
       transform="scale(0.26458333)" />
    <path
       style="fill:#00000b;fill-opacity:0.03921569;stroke-width:2.85714293"
       d="m 319.38196,470.09111 c -1.17802,-1.17857 -4.92802,-2.40074 -8.33333,-2.71594 -3.40532,-0.3152 -10.04863,-1.36032 -14.76292,-2.32248 -4.71428,-0.96216 -11.14285,-2.20427 -14.28571,-2.76024 -3.14286,-0.55597 -6.35714,-1.17976 -7.14286,-1.38619 -0.78571,-0.20643 3.02028,-2.56357 8.45776,-5.23809 l 9.88634,-4.86277 -0.84878,-52.01417 c -0.46682,-28.60779 -0.0796,-53.25875 0.86055,-54.77991 1.78607,-2.88992 47.13501,15.8594 50.8861,21.03864 2.51335,3.47026 2.84776,85.85432 0.38579,95.04115 -1.16005,4.32871 -3.89205,6.42858 -8.3638,6.42858 -3.65255,0 -7.43562,1.28571 -8.40681,2.85714 -2.09761,3.394 -5.37321,3.6748 -8.33233,0.71428 z m -15.41767,-16.95175 c -2.0625,-0.82535 -4.52679,-0.72384 -5.4762,0.22557 -0.9494,0.94941 0.7381,1.62469 3.75,1.50063 3.32841,-0.13709 4.00543,-0.81412 1.7262,-1.72619 z"
       id="path61"
       inkscape:connector-curvature="0"
       transform="scale(0.26458333)" />
    <path
       style="fill:#00000b;fill-opacity:0.03921569;stroke-width:2.85714293"
       d="m 319.38196,470.09111 c -1.17802,-1.17857 -4.92802,-2.36914 -8.33333,-2.64571 -3.40532,-0.27657 -10.04863,-1.24434 -14.76292,-2.15061 -4.71428,-0.90627 -11.50639,-2.11494 -15.09356,-2.68595 -10.06435,-1.60204 -10.46064,-3.92795 -1.02245,-6.00092 15.08769,-3.31381 16.18162,-6.95275 12.37672,-41.17102 -4.20515,-37.81789 -4.51036,-77.90812 -0.54642,-71.77436 1.73111,2.67871 2.78605,2.98724 2.81339,0.82282 0.0468,-3.70247 45.53129,15.22428 49.28572,20.50848 2.5719,3.61987 2.81778,73.03928 0.31241,88.20302 -1.06067,6.41972 -3.71173,11.53832 -6.39713,12.35143 -2.5222,0.76369 -6.81837,2.58039 -9.54705,4.0371 -5.99208,3.19891 -6.37231,3.22007 -9.08538,0.50572 z m -15.41767,-16.95175 c -2.0625,-0.82535 -4.52679,-0.72384 -5.4762,0.22557 -0.9494,0.94941 0.7381,1.62469 3.75,1.50063 3.32841,-0.13709 4.00543,-0.81412 1.7262,-1.72619 z"
       id="path63"
       inkscape:connector-curvature="0"
       transform="scale(0.26458333)" />
    <path
       style="fill:#00000b;fill-opacity:0.03921569;stroke-width:2.85714293"
       d="m 313.42857,469.08709 c -7.82159,-2.4234 -12.91702,-3.44922 -32.23642,-6.48992 -10.06393,-1.58397 -10.46203,-3.91597 -1.02245,-5.98925 13.43914,-2.95173 15.58338,-7.59124 13.56696,-29.35493 -3.35349,-36.19505 -4.95008,-87.88344 -2.62613,-85.01902 1.27492,1.57143 4.88947,3.21478 8.03233,3.65189 16.86551,2.34567 43.65579,15.33625 45.49895,22.0624 2.15719,7.87214 1.99734,62.35747 -0.23754,80.96821 -1.24619,10.37741 -3.2934,15.69613 -6.40374,16.63714 -2.51458,0.76076 -6.80451,2.57507 -9.53318,4.03178 -2.72868,1.45672 -5.30011,2.53807 -5.71429,2.403 -0.41419,-0.13507 -4.6102,-1.44065 -9.32449,-2.9013 z"
       id="path65"
       inkscape:connector-curvature="0"
       transform="scale(0.26458333)" />
    <path
       style="fill:#00000b;fill-opacity:0.03921569;stroke-width:2.85714293"
       d="m 313.42857,469.33365 c -4.71428,-1.29629 -16.28571,-3.93064 -25.71428,-5.85412 -16.6584,-3.39838 -16.90063,-3.57717 -8.57143,-6.32645 15.57008,-5.13934 16.44105,-6.96895 14.52102,-30.50363 -3.43307,-42.08062 -4.78433,-87.23135 -2.52637,-84.41548 1.26008,1.57143 3.73278,3.12343 5.49487,3.44889 1.76209,0.32546 6.26209,1.15132 10,1.83525 9.00104,1.64693 28.57217,10.82942 33.90771,15.90901 5.29862,5.04445 7.16291,36.10952 4.38812,73.12005 -1.99863,26.65798 -2.0293,26.7422 -11.03763,30.30932 -4.96839,1.96739 -9.67629,3.85989 -10.46201,4.20557 -0.78571,0.34567 -5.28571,-0.43211 -10,-1.72841 z"
       id="path67"
       inkscape:connector-curvature="0"
       transform="scale(0.26458333)" />
    <path
       style="fill:#00000b;fill-opacity:0.03921569;stroke-width:2.85714293"
       d="m 299.14286,466.39077 c -28.75283,-6.80224 -27.02936,-5.42233 -14.70739,-11.77554 l 11.0069,-5.67515 -1.81468,-23.35305 c -0.99807,-12.84418 -2.52485,-36.26574 -3.39284,-52.04791 l -1.57816,-28.69485 8.81451,0.1172 c 4.84798,0.0644 8.81451,1.29856 8.81451,2.74246 0,1.44391 0.80206,1.82322 1.78235,0.84293 0.98029,-0.98029 7.08743,0.92411 13.57143,4.232 6.484,3.30788 12.15643,5.77831 12.60541,5.48983 0.44898,-0.28849 3.02041,1.68423 5.71428,4.38381 7.05135,7.06628 7.09356,92.89608 0.0491,99.94048 -5.58986,5.58987 -25.47786,7.43814 -40.86547,3.79779 z"
       id="path69"
       inkscape:connector-curvature="0"
       transform="scale(0.26458333)" />
    <path
       style="fill:#00000b;fill-opacity:0.03921569;stroke-width:2.85714293"
       d="m 299.14286,466.39077 c -28.7471,-6.80088 -27.03221,-5.42088 -14.66207,-11.79879 l 11.05222,-5.6984 -1.65539,-24.75838 c -0.91046,-13.6171 -2.50662,-36.97266 -3.54702,-51.90123 l -1.89164,-27.14286 h 8.92338 c 4.90785,0 8.92337,1.17858 8.92337,2.61905 0,1.44048 0.80206,1.81699 1.78235,0.8367 0.98029,-0.98029 7.08743,0.92411 13.57143,4.232 6.484,3.30788 12.43194,5.99705 13.21765,5.97592 3.68201,-0.099 8.04989,10.5707 9.91772,24.22671 2.66404,19.47716 -1.02093,73.42964 -5.42679,79.45502 -4.16927,5.70181 -24.40555,7.69209 -40.20521,3.95426 z"
       id="path71"
       inkscape:connector-curvature="0"
       transform="scale(0.26458333)" />
    <path
       style="fill:#00000b;fill-opacity:0.03921569;stroke-width:2.85714293"
       d="m 300.57143,466.40624 c -28.42056,-5.72043 -27.70678,-5.24913 -16.81564,-11.10313 l 9.67278,-5.19913 -0.18544,-22.50643 c -0.10199,-12.37854 -1.08707,-35.53603 -2.18906,-51.46108 l -2.00363,-28.95465 8.61764,-1.2648 c 4.7397,-0.69564 8.61763,-0.48246 8.61763,0.47374 0,0.95621 5.78572,3.44687 12.85715,5.53481 7.07143,2.08795 12.85714,5.01595 12.85714,6.50667 0,1.49072 1.09194,2.03554 2.42653,1.21072 4.12805,-2.55128 8.49589,10.30678 10.10049,29.73387 1.79065,21.6795 -1.94244,70.55981 -5.67335,74.2858 -4.1096,4.10417 -24.32475,5.55295 -38.28224,2.74361 z"
       id="path73"
       inkscape:connector-curvature="0"
       transform="scale(0.26458333)" />
    <path
       style="fill:#00000b;fill-opacity:0.03921569;stroke-width:2.85714293"
       d="m 306.28571,467.36912 c -3.92857,-0.67624 -12.19251,-2.54073 -18.36432,-4.14332 l -11.22146,-2.91379 9.48528,-6.00565 9.48528,-6.00565 -1.90653,-35.89052 c -1.0486,-19.73978 -2.67447,-42.47151 -3.61306,-50.51496 l -1.70652,-14.62446 8.92067,-1.30928 c 4.90636,-0.7201 8.92066,-0.24624 8.92066,1.05303 0,1.29927 2.28535,2.36231 5.07856,2.36231 2.7932,0 7.93606,2.00147 11.42857,4.44772 3.49251,2.44625 6.35002,3.54422 6.35002,2.43994 0,-1.10429 3.21428,1.46048 7.14285,5.69948 6.92632,7.47361 7.14168,8.93712 7.10385,48.27435 -0.0214,22.31189 -0.79312,43.37906 -1.71481,46.81593 -0.96187,3.58673 -5.38707,7.54261 -10.38734,9.28572 -8.8475,3.08425 -12.24923,3.22428 -25.0017,1.02915 z"
       id="path75"
       inkscape:connector-curvature="0"
       transform="scale(0.26458333)" />
    <path
       style="fill:#00000b;fill-opacity:0.03921569;stroke-width:2.85714293"
       d="m 353.97573,531.48803 c -1.87236,-1.19599 -11.76144,-2.30272 -21.97573,-2.45941 -10.21429,-0.15669 -28.85714,-0.97722 -41.42857,-1.82341 -12.57143,-0.8462 -32.5,-2.02525 -44.28572,-2.62012 -11.78571,-0.59488 -25.60714,-1.83459 -30.71428,-2.75492 l -9.28572,-1.67334 v -35.1519 c 0,-25.44818 0.9859,-35.54973 3.57143,-36.59301 2.85715,-1.15289 2.85715,-1.48622 0,-1.66667 -4.56003,-0.288 -5.08263,-37.36842 -0.52665,-37.36842 1.67462,0 15.81748,3.42506 31.42857,7.61124 l 28.3838,7.61125 v 16.46497 c 0,13.40744 -0.9285,16.64471 -5,17.43287 -4.49836,0.87079 70.44882,16.25894 87.85714,18.03882 3.92857,0.40167 9.20103,1.59056 11.71656,2.64197 2.51554,1.0514 5.72983,1.64358 7.14286,1.31595 1.41303,-0.32763 4.49772,0.20026 6.85487,1.17309 2.35714,0.97283 13.92857,3.43334 25.71428,5.4678 l 21.42857,3.69903 0.83572,22.19811 0.83572,22.1981 -34.57427,-0.78374 c -19.01585,-0.43106 -36.10621,-1.76228 -37.97858,-2.95826 z m -98.4043,-75.432 c -1.96429,-0.79261 -5.17857,-0.79261 -7.14286,0 -1.96428,0.7926 -0.35714,1.4411 3.57143,1.4411 3.92857,0 5.53571,-0.6485 3.57143,-1.4411 z m -19.28572,-3.82206 c -4.71428,-1.19958 -11.78571,-2.18106 -15.71428,-2.18106 -6.37145,0 -6.21717,0.23555 1.42857,2.18106 4.71429,1.19958 11.78571,2.18106 15.71429,2.18106 6.37144,0 6.21716,-0.23554 -1.42858,-2.18106 z"
       id="path77"
       inkscape:connector-curvature="0"
       transform="scale(0.26458333)" />
    <path
       style="fill:#00000b;fill-opacity:0.03921569;stroke-width:2.85714293"
       d="m 397.14538,534.32151 c -3.48516,-1.28925 -13.46148,-2.31564 -22.16959,-2.28087 -8.70811,0.0348 -26.11865,-0.71846 -38.69008,-1.67384 -35.03682,-2.66265 -63.708,-4.48775 -85.71428,-5.45623 -11,-0.4841 -25.46429,-1.77013 -32.14286,-2.85784 l -12.14286,-1.97766 v -35.11103 c 0,-25.41547 0.98622,-35.50897 3.57143,-36.55212 2.13355,-0.86091 1.5584,-1.53192 -1.42857,-1.66667 -4.25928,-0.19215 -5,-3.15926 -5,-20.0287 v -19.80313 l 30.71429,8.30957 c 16.89285,4.57026 31.67857,8.33882 32.85714,8.37456 1.17857,0.0358 2.14286,7.77928 2.14286,17.20785 0,14.31165 -0.82577,17.19059 -5,17.43191 -8.88129,0.51344 62.12572,14.79294 89.42999,17.98437 3.22221,0.37663 7.46235,1.67597 9.42254,2.88743 1.96018,1.21146 5.38979,1.50201 7.62136,0.64568 2.23156,-0.85633 4.80514,-0.34708 5.71906,1.13167 0.91392,1.47875 4.49081,2.65165 7.94864,2.60645 6.26596,-0.0819 11.60558,0.82925 30.57269,5.21699 l 10,2.31334 0.82887,21.72291 0.82887,21.72291 -11.51642,1.09827 c -6.33403,0.60404 -14.36792,0.0434 -17.85308,-1.24582 z M 255.57143,456.05603 c -1.96429,-0.79261 -5.17857,-0.79261 -7.14286,0 -1.96428,0.7926 -0.35714,1.4411 3.57143,1.4411 3.92857,0 5.53571,-0.6485 3.57143,-1.4411 z m -14.28572,-2.85715 c -1.96428,-0.7926 -5.17857,-0.7926 -7.14285,0 -1.96429,0.79261 -0.35715,1.44111 3.57143,1.44111 3.92857,0 5.53571,-0.6485 3.57142,-1.44111 z M 225.51705,450.254 c -2.77991,-0.72441 -6.63705,-0.67677 -8.57143,0.10585 -1.93438,0.78265 0.34009,1.37535 5.05438,1.31712 4.71429,-0.0582 6.29696,-0.69856 3.51705,-1.42297 z"
       id="path79"
       inkscape:connector-curvature="0"
       transform="scale(0.26458333)" />
    <path
       style="fill:#00000b;fill-opacity:0.03921569;stroke-width:2.85714293"
       d="m 396.28571,534.80602 c -4.71428,-1.45566 -15,-2.62131 -22.85714,-2.59034 -7.85714,0.031 -24.57143,-0.68209 -37.14286,-1.58459 -45.05715,-3.23466 -66.02235,-4.57661 -85.71428,-5.48642 -11,-0.50823 -26.75,-1.85811 -35,-2.99975 l -15,-2.07569 v -35.65188 c 0,-30.17105 0.64478,-35.40446 4.19421,-34.04242 2.30682,0.88521 4.95413,0.37991 5.88291,-1.12288 0.92878,-1.5028 -0.31576,-2.73236 -2.76564,-2.73236 -3.61418,0 -4.45434,-3.80865 -4.45434,-20.19254 0,-18.57018 0.43814,-20.05348 5.45329,-18.46173 7.37394,2.3404 42.65883,11.82322 52.40385,14.08355 7.3833,1.71253 7.85715,2.75829 7.85715,17.34032 0,10.98417 -1.28209,16.23537 -4.3883,17.97369 -3.88785,2.17575 31.36867,10.61897 58.67401,14.05123 3.92857,0.49382 11,1.62022 15.71429,2.50312 9.64023,1.80544 17.12529,2.98023 35.59277,5.58631 7.00459,0.98847 13.95316,2.5497 15.44126,3.4694 1.48809,0.91969 6.04278,2.19725 10.12151,2.83902 4.07874,0.64177 9.98731,1.62175 13.13017,2.17772 3.14286,0.55597 7.32143,1.118 9.28572,1.24895 2.53968,0.16932 3.57142,6.84127 3.57142,23.09524 0,22.27004 -0.17745,22.85714 -6.90918,22.85714 -3.80004,0 -8.62147,0.53136 -10.71428,1.18079 -2.09281,0.64943 -7.66225,-0.0102 -12.37654,-1.46588 z M 255.57143,456.05603 c -1.96429,-0.79261 -5.17857,-0.79261 -7.14286,0 -1.96428,0.7926 -0.35714,1.4411 3.57143,1.4411 3.92857,0 5.53571,-0.6485 3.57143,-1.4411 z m -14.28572,-2.85715 c -1.96428,-0.7926 -5.17857,-0.7926 -7.14285,0 -1.96429,0.79261 -0.35715,1.44111 3.57143,1.44111 3.92857,0 5.53571,-0.6485 3.57142,-1.44111 z M 225.51705,450.254 c -2.77991,-0.72441 -6.63705,-0.67677 -8.57143,0.10587 -1.93438,0.78263 0.34009,1.37533 5.05438,1.3171 4.71429,-0.0582 6.29696,-0.69856 3.51705,-1.42297 z"
       id="path81"
       inkscape:connector-curvature="0"
       transform="scale(0.26458333)" />
    <path
       style="fill:#00000b;fill-opacity:0.03921569;stroke-width:2.85714293"
       d="M 259.14286,389.56127 C 246.57143,385.21055 232.75,380.20676 228.42857,378.44171 l -7.85714,-3.20916 v -31.49929 c 0,-17.32461 0.52301,-31.49929 1.16224,-31.49929 0.63923,0 9.82426,3.88639 20.41119,8.63642 10.58693,4.75004 19.7351,8.15028 20.32928,7.55611 0.59418,-0.59418 -8.59086,-5.29704 -20.4112,-10.4508 -11.82033,-5.15376 -21.49151,-10.40195 -21.49151,-11.66263 0,-1.26069 8.66252,1.63562 19.25005,6.43624 10.58753,4.80061 26.21374,11.80806 34.72491,15.5721 8.51116,3.76404 14.75383,7.56472 13.8726,8.44596 -0.88124,0.88123 -5.69835,-0.51594 -10.7047,-3.10483 -5.00636,-2.58888 -9.63895,-4.17058 -10.29465,-3.51488 -0.6557,0.65571 3.96378,3.5172 10.26552,6.35889 l 11.4577,5.1667 v 28.1375 c 0,20.73234 -0.93992,28.07479 -3.57143,27.8992 -1.96429,-0.13106 -13.85714,-3.79798 -26.42857,-8.14868 z"
       id="path83"
       inkscape:connector-curvature="0"
       transform="scale(0.26458333)" />
    <path
       style="fill:#00000b;fill-opacity:0.03921569;stroke-width:2.85714293"
       d="M 260.57143,390.32446 C 245.64286,384.93707 230.53571,379.79861 227,378.90566 c -6.19949,-1.5657 -6.42857,-2.79346 -6.42857,-34.45331 0,-30.12675 0.41167,-32.66439 5,-30.82139 11.03924,4.43413 13.06098,4.25294 4.28571,-0.38409 -17.0398,-9.00419 -9.55231,-9.46599 10,-0.61677 10.60715,4.80071 25.88889,11.68268 33.95943,15.29326 l 14.6737,6.5647 0.45906,33.15867 c 0.25248,18.23727 0.0779,33.00439 -0.388,32.81582 -0.46587,-0.18856 -13.06133,-4.7507 -27.9899,-10.13809 z m 17.14286,-56.66192 c -3.92858,-2.24577 -8.42858,-4.08322 -10,-4.08322 -1.57143,0 0.35714,1.83745 4.28571,4.08322 3.92857,2.24578 8.42857,4.08323 10,4.08323 1.57143,0 -0.35714,-1.83745 -4.28571,-4.08323 z m -22.85715,-10 c -5.5,-3.01112 -11.28571,-5.47477 -12.85714,-5.47477 -1.57143,0 1.64286,2.46365 7.14286,5.47477 5.5,3.01112 11.28571,5.47477 12.85714,5.47477 1.57143,0 -1.64286,-2.46365 -7.14286,-5.47477 z"
       id="path85"
       inkscape:connector-curvature="0"
       transform="scale(0.26458333)" />
  </g>
</svg>
