<?xml version="1.0" encoding="UTF-8" standalone="no"?>
<!-- Created with Inkscape (http://www.inkscape.org/) -->

<svg
   xmlns:dc="http://purl.org/dc/elements/1.1/"
   xmlns:cc="http://creativecommons.org/ns#"
   xmlns:rdf="http://www.w3.org/1999/02/22-rdf-syntax-ns#"
   xmlns:svg="http://www.w3.org/2000/svg"
   xmlns="http://www.w3.org/2000/svg"
   xmlns:sodipodi="http://sodipodi.sourceforge.net/DTD/sodipodi-0.dtd"
   xmlns:inkscape="http://www.inkscape.org/namespaces/inkscape"
   width="210mm"
   height="297mm"
   viewBox="0 0 210 297"
   version="1.1"
   id="svg8"
   inkscape:version="0.92.3 (2405546, 2018-03-11)"
   sodipodi:docname="SVG.svg">
  <defs
     id="defs2">
    <inkscape:perspective
       sodipodi:type="inkscape:persp3d"
       inkscape:vp_x="-33.918877 : 29.78544 : 1"
       inkscape:vp_y="0 : 2664.5115 : 0"
       inkscape:vp_z="262.81734 : 29.78544 : 1"
       inkscape:persp3d-origin="114.44923 : -102.10789 : 1"
       id="perspective18" />
  </defs>
  <sodipodi:namedview
     id="base"
     pagecolor="#ffffff"
     bordercolor="#666666"
     borderopacity="1.0"
     inkscape:pageopacity="0.0"
     inkscape:pageshadow="2"
     inkscape:zoom="0.35"
     inkscape:cx="400"
     inkscape:cy="560"
     inkscape:document-units="mm"
     inkscape:current-layer="layer1"
     showgrid="false"
     inkscape:window-width="1366"
     inkscape:window-height="706"
     inkscape:window-x="-8"
     inkscape:window-y="-8"
     inkscape:window-maximized="1" />
  <metadata
     id="metadata5">
    <rdf:RDF>
      <cc:Work
         rdf:about="">
        <dc:format>image/svg+xml</dc:format>
        <dc:type
           rdf:resource="http://purl.org/dc/dcmitype/StillImage" />
        <dc:title></dc:title>
      </cc:Work>
    </rdf:RDF>
  </metadata>
  <g
     inkscape:label="Capa 1"
     inkscape:groupmode="layer"
     id="layer1">
    <rect
       id="rect10"
       width="124.9774"
       height="86.61248"
       x="4.5357151"
       y="56.607147"
       style="fill:#808000;stroke-width:0.51338941" />
    <text
       xml:space="preserve"
       style="font-style:italic;font-variant:normal;font-weight:bold;font-stretch:normal;font-size:98.57077789px;line-height:1.25;font-family:sans-serif;-inkscape-font-specification:'sans-serif Bold Italic';letter-spacing:0px;word-spacing:0px;fill:#000000;fill-opacity:1;stroke:none;stroke-width:0.51338941"
       x="136.77603"
       y="140.96706"
       id="text16"
       transform="scale(0.72822707,1.3731981)"><tspan
         sodipodi:role="line"
         id="tspan14"
         x="136.77603"
         y="140.96706"
         style="font-style:italic;font-variant:normal;font-weight:bold;font-stretch:normal;font-size:98.57077789px;font-family:sans-serif;-inkscape-font-specification:'sans-serif Bold Italic';stroke-width:0.51338941">AA</tspan></text>
    <g
       sodipodi:type="inkscape:box3d"
       id="g20"
       style="fill:#808000"
       inkscape:perspectiveID="#perspective18"
       inkscape:corner0="1.0730991 : 0.17298963 : 0 : 1"
       inkscape:corner7="0.80386546 : 0.16948062 : 0.25 : 1">
      <path
         sodipodi:type="inkscape:box3dside"
         id="path22"
         style="fill:#353564;fill-rule:evenodd;stroke:none;stroke-width:1.94036949;stroke-linejoin:round"
         inkscape:box3dsidetype="6"
         d="m 37.649389,108.4959 v 4.51005 l 24.23142,16.59514 v -4.02471 z"
         points="37.649389,113.00595 61.880809,129.60109 61.880809,125.57638 37.649389,108.4959 " />
      <path
         sodipodi:type="inkscape:box3dside"
         id="path32"
         style="fill:#e9e9ff;fill-rule:evenodd;stroke:none;stroke-width:1.94036949;stroke-linejoin:round"
         inkscape:box3dsidetype="11"
         d="m 61.880809,125.57638 12.558027,-18.56682 v 4.55229 l -12.558027,18.03924 z"
         points="74.438836,107.00956 74.438836,111.56185 61.880809,129.60109 61.880809,125.57638 " />
      <path
         sodipodi:type="inkscape:box3dside"
         id="path24"
         style="fill:#4d4d9f;fill-rule:evenodd;stroke:none;stroke-width:1.94036949;stroke-linejoin:round"
         inkscape:box3dsidetype="5"
         d="M 37.649389,108.4959 48.33122,84.806545 74.438836,107.00956 61.880809,125.57638 Z"
         points="48.33122,84.806545 74.438836,107.00956 61.880809,125.57638 37.649389,108.4959 " />
      <path
         sodipodi:type="inkscape:box3dside"
         id="path30"
         style="fill:#afafde;fill-rule:evenodd;stroke:none;stroke-width:1.94036949;stroke-linejoin:round"
         inkscape:box3dsidetype="13"
         d="M 37.649389,113.00595 48.33122,89.989746 74.438836,111.56185 61.880809,129.60109 Z"
         points="48.33122,89.989746 74.438836,111.56185 61.880809,129.60109 37.649389,113.00595 " />
      <path
         sodipodi:type="inkscape:box3dside"
         id="path28"
         style="fill:#d7d7ff;fill-rule:evenodd;stroke:none;stroke-width:1.94036949;stroke-linejoin:round"
         inkscape:box3dsidetype="14"
         d="m 48.33122,84.806545 v 5.183201 l 26.107616,21.572104 v -4.55229 z"
         points="48.33122,89.989746 74.438836,111.56185 74.438836,107.00956 48.33122,84.806545 " />
      <path
         sodipodi:type="inkscape:box3dside"
         id="path26"
         style="fill:#8686bf;fill-rule:evenodd;stroke:none;stroke-width:1.94036949;stroke-linejoin:round"
         inkscape:box3dsidetype="3"
         d="M 37.649389,108.4959 48.33122,84.806545 v 5.183201 L 37.649389,113.00595 Z"
         points="48.33122,84.806545 48.33122,89.989746 37.649389,113.00595 37.649389,108.4959 " />
    </g>
    <g
       sodipodi:type="inkscape:box3d"
       id="g34"
       style="fill:#808000"
       inkscape:perspectiveID="#perspective18"
       inkscape:corner0="0.54873273 : 0.13182642 : 0 : 1"
       inkscape:corner7="0.54873273 : 0.12948708 : 0.25 : 1">
      <path
         sodipodi:type="inkscape:box3dside"
         id="path36"
         style="fill:#353564;fill-rule:evenodd;stroke:none;stroke-width:1.94036949;stroke-linejoin:round"
         inkscape:box3dsidetype="6"
         d="m 61.880809,125.57639 v 4.02471 l 27.927514,19.12644 v -3.46532 z"
         points="61.880809,129.6011 89.808323,148.72754 89.808323,145.26222 61.880809,125.57639 " />
      <path
         sodipodi:type="inkscape:box3dside"
         id="path46"
         style="fill:#e9e9ff;fill-rule:evenodd;stroke:none;stroke-width:1.94036949;stroke-linejoin:round"
         inkscape:box3dsidetype="11"
         d="m 89.808323,145.26222 v 0 3.46532 0 z"
         points="89.808323,145.26222 89.808323,148.72754 89.808323,148.72754 89.808323,145.26222 " />
      <path
         sodipodi:type="inkscape:box3dside"
         id="path38"
         style="fill:#4d4d9f;fill-rule:evenodd;stroke:none;stroke-width:1.94036949;stroke-linejoin:round"
         inkscape:box3dsidetype="5"
         d="m 61.880809,125.57639 v 0 l 27.927514,19.68583 v 0 z"
         points="61.880809,125.57639 89.808323,145.26222 89.808323,145.26222 61.880809,125.57639 " />
      <path
         sodipodi:type="inkscape:box3dside"
         id="path44"
         style="fill:#afafde;fill-rule:evenodd;stroke:none;stroke-width:1.94036949;stroke-linejoin:round"
         inkscape:box3dsidetype="13"
         d="m 61.880809,129.6011 v 0 l 27.927514,19.12644 v 0 z"
         points="61.880809,129.6011 89.808323,148.72754 89.808323,148.72754 61.880809,129.6011 " />
      <path
         sodipodi:type="inkscape:box3dside"
         id="path42"
         style="fill:#d7d7ff;fill-rule:evenodd;stroke:none;stroke-width:1.94036949;stroke-linejoin:round"
         inkscape:box3dsidetype="14"
         d="m 61.880809,125.57639 v 4.02471 l 27.927514,19.12644 v -3.46532 z"
         points="61.880809,129.6011 89.808323,148.72754 89.808323,145.26222 61.880809,125.57639 " />
      <path
         sodipodi:type="inkscape:box3dside"
         id="path40"
         style="fill:#8686bf;fill-rule:evenodd;stroke:none;stroke-width:1.94036949;stroke-linejoin:round"
         inkscape:box3dsidetype="3"
         d="m 61.880809,125.57639 v 0 4.02471 0 z"
         points="61.880809,125.57639 61.880809,129.6011 61.880809,129.6011 61.880809,125.57639 " />
    </g>
    <g
       sodipodi:type="inkscape:box3d"
       id="g48"
       style="fill:#808000"
       inkscape:perspectiveID="#perspective18"
       inkscape:corner0="0.54873273 : 0.12948708 : 0 : 1"
       inkscape:corner7="0.36174158 : 0.089193153 : 0.17217805 : 1">
      <path
         sodipodi:type="inkscape:box3dside"
         id="path50"
         style="fill:#353564;fill-rule:evenodd;stroke:none;stroke-width:1.94036949;stroke-linejoin:round"
         inkscape:box3dsidetype="6"
         d="m 61.880809,129.6011 v 69.32353 l 20.103809,6.83245 V 143.3694 Z"
         points="61.880809,198.92463 81.984618,205.75708 81.984618,143.3694 61.880809,129.6011 " />
      <path
         sodipodi:type="inkscape:box3dside"
         id="path60"
         style="fill:#e9e9ff;fill-rule:evenodd;stroke:none;stroke-width:1.94036949;stroke-linejoin:round"
         inkscape:box3dsidetype="11"
         d="m 81.984618,143.3694 14.129115,-15.09724 v 69.99299 l -14.129115,7.49193 z"
         points="96.113733,128.27216 96.113733,198.26515 81.984618,205.75708 81.984618,143.3694 " />
      <path
         sodipodi:type="inkscape:box3dside"
         id="path52"
         style="fill:#4d4d9f;fill-rule:evenodd;stroke:none;stroke-width:1.94036949;stroke-linejoin:round"
         inkscape:box3dsidetype="5"
         d="M 61.880809,129.6011 75.035797,110.70434 96.113733,128.27216 81.984618,143.3694 Z"
         points="75.035797,110.70434 96.113733,128.27216 81.984618,143.3694 61.880809,129.6011 " />
      <path
         sodipodi:type="inkscape:box3dside"
         id="path58"
         style="fill:#afafde;fill-rule:evenodd;stroke:none;stroke-width:1.94036949;stroke-linejoin:round"
         inkscape:box3dsidetype="13"
         d="m 61.880809,198.92463 13.154988,-9.37741 21.077936,8.71793 -14.129115,7.49193 z"
         points="75.035797,189.54722 96.113733,198.26515 81.984618,205.75708 61.880809,198.92463 " />
      <path
         sodipodi:type="inkscape:box3dside"
         id="path56"
         style="fill:#d7d7ff;fill-rule:evenodd;stroke:none;stroke-width:1.94036949;stroke-linejoin:round"
         inkscape:box3dsidetype="14"
         d="m 75.035797,110.70434 v 78.84288 l 21.077936,8.71793 v -69.99299 z"
         points="75.035797,189.54722 96.113733,198.26515 96.113733,128.27216 75.035797,110.70434 " />
      <path
         sodipodi:type="inkscape:box3dside"
         id="path54"
         style="fill:#8686bf;fill-rule:evenodd;stroke:none;stroke-width:1.94036949;stroke-linejoin:round"
         inkscape:box3dsidetype="3"
         d="m 61.880809,129.6011 13.154988,-18.89676 v 78.84288 l -13.154988,9.37741 z"
         points="75.035797,110.70434 75.035797,189.54722 61.880809,198.92463 61.880809,129.6011 " />
    </g>
    <g
       sodipodi:type="inkscape:box3d"
       id="g62"
       style="fill:#808000"
       inkscape:perspectiveID="#perspective18"
       inkscape:corner0="1.6711085 : 0.16948062 : 0 : 1"
       inkscape:corner7="0.80386546 : 0.1374558 : 0.25 : 1">
      <path
         sodipodi:type="inkscape:box3dside"
         id="path64"
         style="fill:#353564;fill-rule:evenodd;stroke:none;stroke-width:1.94036949;stroke-linejoin:round"
         inkscape:box3dsidetype="6"
         d="M 21.626642,147.53027 V 179.476 l 20.642053,7.50901 v -29.21168 z"
         points="21.626642,179.476 42.268695,186.98501 42.268695,157.77333 21.626642,147.53027 " />
      <path
         sodipodi:type="inkscape:box3dside"
         id="path74"
         style="fill:#e9e9ff;fill-rule:evenodd;stroke:none;stroke-width:1.94036949;stroke-linejoin:round"
         inkscape:box3dsidetype="11"
         d="m 42.268695,157.77333 32.170141,-46.21148 v 41.5463 l -32.170141,33.87686 z"
         points="74.438836,111.56185 74.438836,153.10815 42.268695,186.98501 42.268695,157.77333 " />
      <path
         sodipodi:type="inkscape:box3dside"
         id="path66"
         style="fill:#4d4d9f;fill-rule:evenodd;stroke:none;stroke-width:1.94036949;stroke-linejoin:round"
         inkscape:box3dsidetype="5"
         d="M 21.626642,147.53027 48.33122,89.989746 74.438836,111.56185 42.268695,157.77333 Z"
         points="48.33122,89.989746 74.438836,111.56185 42.268695,157.77333 21.626642,147.53027 " />
      <path
         sodipodi:type="inkscape:box3dside"
         id="path72"
         style="fill:#afafde;fill-rule:evenodd;stroke:none;stroke-width:1.94036949;stroke-linejoin:round"
         inkscape:box3dsidetype="13"
         d="M 21.626642,179.476 48.33122,137.29399 74.438836,153.10815 42.268695,186.98501 Z"
         points="48.33122,137.29399 74.438836,153.10815 42.268695,186.98501 21.626642,179.476 " />
      <path
         sodipodi:type="inkscape:box3dside"
         id="path70"
         style="fill:#d7d7ff;fill-rule:evenodd;stroke:none;stroke-width:1.94036949;stroke-linejoin:round"
         inkscape:box3dsidetype="14"
         d="m 48.33122,89.989746 v 47.304244 l 26.107616,15.81416 v -41.5463 z"
         points="48.33122,137.29399 74.438836,153.10815 74.438836,111.56185 48.33122,89.989746 " />
      <path
         sodipodi:type="inkscape:box3dside"
         id="path68"
         style="fill:#8686bf;fill-rule:evenodd;stroke:none;stroke-width:1.94036949;stroke-linejoin:round"
         inkscape:box3dsidetype="3"
         d="M 21.626642,147.53027 48.33122,89.989746 V 137.29399 L 21.626642,179.476 Z"
         points="48.33122,89.989746 48.33122,137.29399 21.626642,179.476 21.626642,147.53027 " />
    </g>
    <g
       sodipodi:type="inkscape:box3d"
       id="g104"
       style="fill:#808000"
       inkscape:perspectiveID="#perspective18"
       inkscape:corner0="0.94740567 : 0.12948708 : 0 : 1"
       inkscape:corner7="0.94740567 : 0.1081372 : 0.25 : 1">
      <path
         sodipodi:type="inkscape:box3dside"
         id="path106"
         style="fill:#353564;fill-rule:evenodd;stroke:none;stroke-width:1.94036949;stroke-linejoin:round"
         inkscape:box3dsidetype="6"
         d="m 42.268695,157.77333 v 29.21168 l 25.091936,9.12776 v -25.88826 z"
         points="42.268695,186.98501 67.360631,196.11277 67.360631,170.22451 42.268695,157.77333 " />
      <path
         sodipodi:type="inkscape:box3dside"
         id="path116"
         style="fill:#e9e9ff;fill-rule:evenodd;stroke:none;stroke-width:1.94036949;stroke-linejoin:round"
         inkscape:box3dsidetype="11"
         d="m 67.360631,170.22451 v 0 25.88826 0 z"
         points="67.360631,170.22451 67.360631,196.11277 67.360631,196.11277 67.360631,170.22451 " />
      <path
         sodipodi:type="inkscape:box3dside"
         id="path108"
         style="fill:#4d4d9f;fill-rule:evenodd;stroke:none;stroke-width:1.94036949;stroke-linejoin:round"
         inkscape:box3dsidetype="5"
         d="m 42.268695,157.77333 v 0 l 25.091936,12.45118 v 0 z"
         points="42.268695,157.77333 67.360631,170.22451 67.360631,170.22451 42.268695,157.77333 " />
      <path
         sodipodi:type="inkscape:box3dside"
         id="path114"
         style="fill:#afafde;fill-rule:evenodd;stroke:none;stroke-width:1.94036949;stroke-linejoin:round"
         inkscape:box3dsidetype="13"
         d="m 42.268695,186.98501 v 0 l 25.091936,9.12776 v 0 z"
         points="42.268695,186.98501 67.360631,196.11277 67.360631,196.11277 42.268695,186.98501 " />
      <path
         sodipodi:type="inkscape:box3dside"
         id="path112"
         style="fill:#d7d7ff;fill-rule:evenodd;stroke:none;stroke-width:1.94036949;stroke-linejoin:round"
         inkscape:box3dsidetype="14"
         d="m 42.268695,157.77333 v 29.21168 l 25.091936,9.12776 v -25.88826 z"
         points="42.268695,186.98501 67.360631,196.11277 67.360631,170.22451 42.268695,157.77333 " />
      <path
         sodipodi:type="inkscape:box3dside"
         id="path110"
         style="fill:#8686bf;fill-rule:evenodd;stroke:none;stroke-width:1.94036949;stroke-linejoin:round"
         inkscape:box3dsidetype="3"
         d="m 42.268695,157.77333 v 0 29.21168 0 z"
         points="42.268695,157.77333 42.268695,186.98501 42.268695,186.98501 42.268695,157.77333 " />
    </g>
    <g
       sodipodi:type="inkscape:box3d"
       id="g118"
       style="fill:#808000"
       inkscape:perspectiveID="#perspective18"
       inkscape:corner0="0.9563048 : 0.1081372 : 0 : 1"
       inkscape:corner7="0.94740567 : 0.069552133 : 1.1885016 : 1">
      <path
         sodipodi:type="inkscape:box3dside"
         id="path120"
         style="fill:#353564;fill-rule:evenodd;stroke:none;stroke-width:1.94036949;stroke-linejoin:round"
         inkscape:box3dsidetype="6"
         d="m 41.922121,187.34997 v 52.55334 l 83.481869,10.32161 v -32.69211 z"
         points="41.922121,239.90331 125.40399,250.22492 125.40399,217.53281 41.922121,187.34997 " />
      <path
         sodipodi:type="inkscape:box3dside"
         id="path130"
         style="fill:#e9e9ff;fill-rule:evenodd;stroke:none;stroke-width:1.94036949;stroke-linejoin:round"
         inkscape:box3dsidetype="11"
         d="m 125.40399,217.53281 0.45213,-0.14098 v 32.78488 l -0.45213,0.0482 z"
         points="125.85612,217.39183 125.85612,250.17671 125.40399,250.22492 125.40399,217.53281 " />
      <path
         sodipodi:type="inkscape:box3dside"
         id="path122"
         style="fill:#4d4d9f;fill-rule:evenodd;stroke:none;stroke-width:1.94036949;stroke-linejoin:round"
         inkscape:box3dsidetype="5"
         d="m 41.922121,187.34997 0.346574,-0.36496 83.587425,30.40682 -0.45213,0.14098 z"
         points="42.268695,186.98501 125.85612,217.39183 125.40399,217.53281 41.922121,187.34997 " />
      <path
         sodipodi:type="inkscape:box3dside"
         id="path128"
         style="fill:#afafde;fill-rule:evenodd;stroke:none;stroke-width:1.94036949;stroke-linejoin:round"
         inkscape:box3dsidetype="13"
         d="m 41.922121,239.90331 0.346574,-0.1248 83.587425,10.3982 -0.45213,0.0482 z"
         points="42.268695,239.77851 125.85612,250.17671 125.40399,250.22492 41.922121,239.90331 " />
      <path
         sodipodi:type="inkscape:box3dside"
         id="path126"
         style="fill:#d7d7ff;fill-rule:evenodd;stroke:none;stroke-width:1.94036949;stroke-linejoin:round"
         inkscape:box3dsidetype="14"
         d="m 42.268695,186.98501 v 52.7935 l 83.587425,10.3982 v -32.78488 z"
         points="42.268695,239.77851 125.85612,250.17671 125.85612,217.39183 42.268695,186.98501 " />
      <path
         sodipodi:type="inkscape:box3dside"
         id="path124"
         style="fill:#8686bf;fill-rule:evenodd;stroke:none;stroke-width:1.94036949;stroke-linejoin:round"
         inkscape:box3dsidetype="3"
         d="m 41.922121,187.34997 0.346574,-0.36496 v 52.7935 l -0.346574,0.1248 z"
         points="42.268695,186.98501 42.268695,239.77851 41.922121,239.90331 41.922121,187.34997 " />
    </g>
    <path
       style="fill:#00000b;fill-opacity:0.03921569;stroke-width:1.46682703"
       d="m 93.408548,198.6136 c 0,-0.92628 -2.28324,-2.65696 -5.07387,-3.84594 -2.79063,-1.18898 -6.756258,-2.93179 -8.812511,-3.87289 l -3.738641,-1.71114 -0.2901,-38.68693 -0.290101,-38.68694 6.165109,5.19506 c 3.390809,2.85727 7.901894,6.52893 10.024639,8.15921 3.703785,2.8446 3.886976,3.45942 4.539777,15.2367 0.374137,6.74986 0.680242,22.46627 0.680242,34.92532 0,18.27776 -0.309449,22.87678 -1.602272,23.81224 -0.881248,0.6377 -1.602272,0.40156 -1.602272,-0.52469 z"
       id="path53"
       inkscape:connector-curvature="0" />
    <path
       style="fill:#00000b;fill-opacity:0.03921569;stroke-width:1.46682703"
       d="m 93.408548,199.21052 c 0,-1.11063 -2.523577,-3.12984 -5.607961,-4.48714 -3.084378,-1.35731 -7.050008,-3.15901 -8.812511,-4.00378 l -3.20455,-1.53597 -0.290193,-38.73835 -0.290199,-38.73841 3.494748,2.8292 c 1.922106,1.55608 6.436119,5.26913 10.031137,8.25125 l 6.536393,5.42204 0.653615,28.55399 c 0.702306,30.68108 0.437236,38.90805 -1.362978,42.30267 -0.715976,1.35008 -1.147501,1.40443 -1.147501,0.14438 z"
       id="path55"
       inkscape:connector-curvature="0" />
    <path
       style="fill:#00000b;fill-opacity:0.03921569;stroke-width:1.46682703"
       d="m 93.408548,198.71779 c 0,-1.06926 -2.402875,-2.56729 -5.339722,-3.32896 -2.936848,-0.76165 -5.60897,-2.20631 -5.938049,-3.21035 -0.32908,-1.00407 -1.786749,-1.82557 -3.239267,-1.82557 -1.452518,0 -2.877445,-1.16218 -3.166505,-2.5826 -0.289061,-1.42042 -0.394143,-19.03824 -0.233518,-39.15065 l 0.292039,-36.56803 9.880693,8.22378 9.880696,8.2238 v 34.83645 c 0,21.0516 -0.422688,35.32909 -1.06819,36.08135 -0.58749,0.68467 -1.068177,0.37003 -1.068177,-0.69922 z"
       id="path57"
       inkscape:connector-curvature="0" />
    <path
       style="fill:#00000b;fill-opacity:0.03921569;stroke-width:1.46682703"
       d="m 92.713681,198.90046 c 0.405738,-1.238 -1.645317,-2.59199 -5.192233,-3.42763 -3.224604,-0.75971 -5.862914,-2.22247 -5.862914,-3.2506 0,-1.02814 -1.369699,-1.86932 -3.043776,-1.86932 H 75.570981 L 75.340094,150.8089 c -0.186929,-32.01475 0.03668,-39.34047 1.174452,-38.47531 0.772941,0.58775 5.381765,4.47232 10.241838,8.63234 l 8.836497,7.56365 -0.291037,35.2777 c -0.230622,27.95572 -0.599011,35.47092 -1.774933,36.20858 -0.818138,0.51325 -1.183006,0.0135 -0.81323,-1.1154 z"
       id="path59"
       inkscape:connector-curvature="0" />
    <path
       style="fill:#00000b;fill-opacity:0.03921569;stroke-width:1.46682703"
       d="m 85.486566,202.94193 c -0.440419,-0.83088 -1.842409,-1.69247 -3.115533,-1.9147 -1.273128,-0.22221 -3.756821,-0.95901 -5.519325,-1.63732 -1.7625,-0.67829 -4.165912,-1.55396 -5.340914,-1.94591 -1.175003,-0.39194 -2.376706,-0.83172 -2.67046,-0.97724 -0.293748,-0.14543 1.129175,-1.80726 3.162054,-3.69276 l 3.696147,-3.4282 -0.317329,-36.66924 c -0.174527,-20.16806 -0.02976,-37.54663 0.32173,-38.61902 0.667747,-2.03734 17.622091,11.18065 19.02449,14.83194 0.939642,2.44648 1.064668,60.52603 0.144227,67.00261 -0.4337,3.05167 -1.455095,4.53206 -3.126924,4.53206 -1.36556,0 -2.77991,0.90639 -3.143004,2.01423 -0.78422,2.39271 -2.008851,2.59068 -3.115159,0.50355 z m -5.764113,-11.95072 c -0.771095,-0.58187 -1.692405,-0.51031 -2.047355,0.15906 -0.354946,0.66929 0.275949,1.14536 1.40199,1.05791 1.244373,-0.0966 1.497486,-0.57393 0.645365,-1.21694 z"
       id="path61"
       inkscape:connector-curvature="0" />
    <path
       style="fill:#00000b;fill-opacity:0.03921569;stroke-width:1.46682703"
       d="m 85.486566,202.94193 c -0.440419,-0.83088 -1.842409,-1.67021 -3.115533,-1.86518 -1.273128,-0.19506 -3.756821,-0.87725 -5.519325,-1.51614 -1.7625,-0.63892 -4.301827,-1.491 -5.642941,-1.89357 -3.762698,-1.12939 -3.910858,-2.76914 -0.382257,-4.23053 5.640746,-2.33621 6.049726,-4.90161 4.627212,-29.02498 -1.572156,-26.66107 -1.686262,-54.9241 -0.204288,-50.59987 0.6472,1.88843 1.041605,2.10596 1.051827,0.58007 0.0175,-2.61018 17.022508,10.73289 18.426165,14.45817 0.961539,2.55197 1.053464,51.49162 0.116735,62.18185 -0.396557,4.52581 -1.387685,8.13432 -2.391659,8.70757 -0.94296,0.5384 -2.549149,1.81914 -3.5693,2.84609 -2.240225,2.25519 -2.382379,2.27011 -3.396698,0.35652 z m -5.764113,-11.95072 c -0.771095,-0.58187 -1.692405,-0.51031 -2.047355,0.15906 -0.354946,0.66929 0.275949,1.14536 1.40199,1.05791 1.244373,-0.0966 1.497486,-0.57393 0.645365,-1.21694 z"
       id="path63"
       inkscape:connector-curvature="0" />
    <path
       style="fill:#00000b;fill-opacity:0.03921569;stroke-width:1.46682703"
       d="m 83.260808,202.23413 c -2.924213,-1.70846 -4.82921,-2.43165 -12.052041,-4.57532 -3.762541,-1.11666 -3.911377,-2.7607 -0.382257,-4.2223 5.024412,-2.08094 5.826066,-5.35172 5.0722,-20.69483 -1.25375,-25.51696 -1.850658,-61.95653 -0.981817,-59.93713 0.476648,1.10782 1.827998,2.26635 3.003,2.57452 6.305409,1.65365 16.321327,10.81182 17.010421,15.55367 0.806502,5.54975 0.746736,43.96109 -0.08876,57.08141 -0.465897,7.3159 -1.231275,11.0655 -2.394126,11.72892 -0.940111,0.53631 -2.543961,1.81539 -3.564112,2.84234 -1.020156,1.02695 -1.98152,1.7893 -2.136368,1.69407 -0.15485,-0.0952 -1.723589,-1.01563 -3.486089,-2.04535 z"
       id="path65"
       inkscape:connector-curvature="0" />
    <path
       style="fill:#00000b;fill-opacity:0.03921569;stroke-width:1.46682703"
       d="m 83.260808,202.40793 c -1.7625,-0.91385 -6.088643,-2.77104 -9.613647,-4.12705 -6.227977,-2.39581 -6.318538,-2.52185 -3.204549,-4.46005 5.821093,-3.62318 6.146718,-4.91301 5.428886,-21.50462 -1.283501,-29.66624 -1.788688,-61.49683 -0.944518,-59.51166 0.471099,1.10782 1.395553,2.20194 2.054336,2.43141 0.658782,0.22941 2.34117,0.81167 3.73864,1.29382 3.365164,1.16105 10.682107,7.63458 12.67688,11.21561 1.980963,3.55626 2.677952,25.45669 1.640561,51.54858 -0.74722,18.79347 -0.758689,18.85286 -4.126575,21.36762 -1.857507,1.38699 -3.617621,2.72115 -3.911374,2.96485 -0.29375,0.2438 -1.976137,-0.30464 -3.73864,-1.21851 z"
       id="path67"
       inkscape:connector-curvature="0" />
    <path
       style="fill:#00000b;fill-opacity:0.03921569;stroke-width:1.46682703"
       d="m 77.919893,200.33326 c -10.74965,-4.79547 -10.105306,-3.82268 -5.498565,-8.30159 l 4.115085,-4.00091 -0.678443,-16.46353 c -0.373143,-9.05497 -0.943951,-25.56681 -1.268462,-36.69302 l -0.590017,-20.22944 3.295429,0.0827 c 1.812485,0.0453 3.295429,0.91547 3.295429,1.93341 0,1.01791 0.299862,1.28533 0.666356,0.59421 0.366496,-0.69107 2.649736,0.65152 5.07387,2.98353 2.424136,2.33201 4.544859,4.07362 4.712713,3.87024 0.167855,-0.20329 1.129215,1.18738 2.136368,3.09052 2.636242,4.98162 2.652024,65.49036 0.01831,70.45656 -2.089851,3.9408 -9.525256,5.24378 -15.27813,2.67741 z"
       id="path69"
       inkscape:connector-curvature="0" />
    <path
       style="fill:#00000b;fill-opacity:0.03921569;stroke-width:1.46682703"
       d="m 77.919893,200.33326 c -10.747507,-4.79454 -10.106371,-3.82166 -5.48162,-8.31799 L 76.5703,187.99799 75.951409,170.54371 C 75.611022,160.94385 75.014274,144.47852 74.625306,133.9541 L 73.91809,114.81878 h 3.33613 c 1.83487,0 3.336129,0.83087 3.336129,1.84639 0,1.01551 0.299862,1.28094 0.666356,0.58986 0.366496,-0.6911 2.649736,0.65149 5.07387,2.9835 2.424136,2.33201 4.647859,4.22783 4.941605,4.21294 1.376572,-0.0699 3.009567,7.45218 3.70788,17.07946 0.995987,13.73111 -0.381691,51.76682 -2.028877,56.01463 -1.558745,4.01969 -9.124364,5.42281 -15.03129,2.7877 z"
       id="path71"
       inkscape:connector-curvature="0" />
    <path
       style="fill:#00000b;fill-opacity:0.03921569;stroke-width:1.46682703"
       d="M 78.453984,200.34418 C 67.828557,196.31135 68.095415,196.6436 72.16722,192.51663 l 3.616306,-3.66534 -0.06932,-15.86668 c -0.03813,-8.7267 -0.406424,-25.05237 -0.818417,-36.27933 l -0.749086,-20.41258 3.221825,-0.89168 c 1.772004,-0.49039 3.221823,-0.34011 3.221823,0.33398 0,0.67412 2.163073,2.43 4.806828,3.90195 2.643753,1.472 4.806821,3.53618 4.806821,4.58712 0,1.05094 0.408242,1.43503 0.90719,0.85356 1.543333,-1.79863 3.176314,7.26612 3.776216,20.96192 0.66946,15.28374 -0.726212,49.74363 -2.12107,52.37041 -1.536428,2.89336 -9.094145,3.91475 -14.312348,1.93422 z"
       id="path73"
       inkscape:connector-curvature="0" />
    <path
       style="fill:#00000b;fill-opacity:0.03921569;stroke-width:1.46682703"
       d="m 80.590349,201.02297 c -1.468752,-0.47674 -4.558342,-1.79117 -6.865761,-2.92096 l -4.1953,-2.05418 3.546206,-4.23392 3.546205,-4.23387 -0.712782,-25.30231 c -0.392035,-13.91624 -0.999889,-29.94178 -1.350795,-35.61229 l -0.638005,-10.31004 3.335116,-0.92301 c 1.834313,-0.50768 3.335116,-0.17347 3.335116,0.74236 0,0.91598 0.854411,1.66539 1.898691,1.66539 1.044277,0 2.967007,1.411 4.272732,3.13559 1.305723,1.72457 2.374044,2.49861 2.374044,1.72011 0,-0.77851 1.201708,1.02962 2.670459,4.01807 2.589499,5.26878 2.670018,6.30052 2.655864,34.03268 -0.0076,15.72957 -0.296517,30.5816 -0.641102,33.00456 -0.359602,2.52859 -2.014025,5.31743 -3.883453,6.54631 -3.307761,2.17434 -4.579545,2.27305 -9.347235,0.72551 z"
       id="path75"
       inkscape:connector-curvature="0" />
    <path
       style="fill:#00000b;fill-opacity:0.03921569;stroke-width:1.46682703"
       d="m 98.419931,246.22588 c -0.700003,-0.84316 -4.397176,-1.62342 -8.215928,-1.73386 -3.818761,-0.11051 -10.788654,-0.68892 -15.488658,-1.28549 -4.700007,-0.59655 -12.150585,-1.42775 -16.556842,-1.84713 -4.406254,-0.41938 -9.573589,-1.29336 -11.482966,-1.94218 l -3.471598,-1.17969 v -24.78158 c 0,-17.94058 0.368594,-25.06202 1.335231,-25.79754 1.068184,-0.81275 1.068184,-1.04776 0,-1.17496 -1.704832,-0.20304 -1.900213,-26.34418 -0.196897,-26.34418 0.626081,0 5.91359,2.4146 11.750015,5.36581 l 10.611683,5.36583 v 11.60755 c 0,9.45205 -0.347132,11.73427 -1.869319,12.28991 -1.681777,0.61391 26.338278,11.46231 32.846631,12.7171 1.468751,0.28316 3.439937,1.12134 4.380407,1.86255 0.94046,0.74123 2.14218,1.15869 2.67045,0.92774 0.52828,-0.23102 1.68153,0.14122 2.56279,0.82701 0.88125,0.68581 5.20739,2.42044 9.61363,3.85472 l 8.01139,2.60776 0.31244,15.64935 0.31245,15.64932 -12.92608,-0.55253 c -7.10934,-0.30389 -13.498825,-1.24238 -14.198829,-2.08551 z m -36.78983,-53.17846 c -0.734378,-0.55878 -1.936081,-0.55878 -2.67046,0 -0.734373,0.55878 -0.133517,1.01595 1.33523,1.01595 1.468751,0 2.069605,-0.45717 1.33523,-1.01595 z m -7.210238,-2.69451 c -1.762501,-0.8457 -4.406253,-1.53761 -5.875007,-1.53761 -2.382054,0 -2.324376,0.16599 0.534093,1.53761 1.762503,0.84569 4.406253,1.53764 5.875008,1.53764 2.382052,0 2.324374,-0.166 -0.534094,-1.53764 z"
       id="path77"
       inkscape:connector-curvature="0" />
    <path
       style="fill:#00000b;fill-opacity:0.03921569;stroke-width:1.46682703"
       d="m 114.55952,248.22344 c -1.30299,-0.90891 -5.03277,-1.63249 -8.28843,-1.60799 -3.25563,0.0239 -9.764814,-0.50649 -14.464815,-1.18002 -13.099011,-1.87715 -23.818137,-3.16381 -32.045495,-3.84658 -4.112505,-0.34127 -9.520182,-1.24793 -12.017062,-2.01475 l -4.539779,-1.3942 v -24.75276 c 0,-17.91755 0.368714,-25.03331 1.335231,-25.76873 0.797658,-0.60691 0.58263,-1.07998 -0.534091,-1.17496 -1.592391,-0.13534 -1.869321,-2.22724 -1.869321,-14.11993 V 158.4026 l 11.482971,5.8581 c 6.315629,3.222 11.843479,5.87877 12.284104,5.90395 0.440624,0.0239 0.801138,5.48428 0.801138,12.13127 0,10.08955 -0.308726,12.11915 -1.869319,12.28926 -3.320397,0.36196 23.226573,10.4288 33.434655,12.67871 1.204674,0.2654 2.789903,1.18153 3.522753,2.03561 0.73284,0.85406 2.01506,1.05889 2.84935,0.45518 0.83431,-0.6037 1.79647,-0.24461 2.13816,0.79781 0.34168,1.04253 1.67895,1.86939 2.9717,1.83752 2.34263,-0.0578 4.33892,0.58459 11.43003,3.6779 l 3.73865,1.63088 0.30989,15.31434 0.30987,15.31433 -4.30557,0.77425 c -2.36807,0.42585 -5.37165,0.0308 -6.67462,-0.87827 z M 61.630101,193.04742 c -0.734378,-0.55878 -1.936081,-0.55878 -2.67046,0 -0.734373,0.55878 -0.133517,1.01595 1.33523,1.01595 1.468751,0 2.069605,-0.45717 1.33523,-1.01595 z m -5.340918,-2.01426 c -0.734374,-0.55878 -1.936081,-0.55878 -2.670454,0 -0.734379,0.55876 -0.133532,1.01597 1.335228,1.01597 1.468752,0 2.069604,-0.45721 1.335226,-1.01597 z m -5.895336,-2.07609 c -1.039309,-0.51071 -2.481355,-0.47713 -3.204548,0.0746 -0.723196,0.55177 0.127149,0.96961 1.88965,0.92855 1.762503,-0.041 2.354208,-0.49247 1.314898,-1.00317 z"
       id="path79"
       inkscape:connector-curvature="0" />
    <path
       style="fill:#00000b;fill-opacity:0.03921569;stroke-width:1.46682703"
       d="m 114.23811,248.565 c -1.76249,-1.02622 -5.60796,-1.84797 -8.54547,-1.82616 -2.93749,0.0214 -9.186364,-0.48085 -13.886365,-1.11711 -16.845254,-2.28038 -24.68339,-3.22645 -32.045495,-3.86783 -4.112505,-0.3583 -10.000865,-1.30997 -13.085243,-2.11478 l -5.607961,-1.46334 v -25.13404 c 0,-21.27016 0.24106,-24.95962 1.568065,-23.99943 0.862436,0.62406 1.85217,0.26785 2.199409,-0.7916 0.347238,-1.05944 -0.118058,-1.92627 -1.033974,-1.92627 -1.351213,0 -1.665318,-2.68506 -1.665318,-14.23544 0,-13.0917 0.163804,-14.13742 2.03879,-13.01527 2.756851,1.64997 15.948604,8.33522 19.591916,9.92872 2.760351,1.20728 2.937507,1.94453 2.937507,12.22467 0,7.74365 -0.479327,11.44568 -1.640628,12.67119 -1.453527,1.53386 11.72762,7.48622 21.936105,9.9059 1.468752,0.34813 4.112507,1.14224 5.875005,1.76466 3.60414,1.27281 6.402528,2.10101 13.306867,3.93825 2.61877,0.69687 5.21657,1.79751 5.77293,2.44589 0.55634,0.64836 2.25918,1.54904 3.78407,2.00147 1.52489,0.45244 3.73389,1.14332 4.9089,1.53526 1.175,0.39196 2.73722,0.78818 3.47158,0.8805 0.94952,0.1194 1.33523,4.82298 1.33523,16.2818 0,15.70003 -0.0664,16.11395 -2.58309,16.11395 -1.42069,0 -3.22326,0.3746 -4.00568,0.83244 -0.78242,0.45784 -2.86465,-0.008 -4.62715,-1.03343 z M 61.630101,193.04742 c -0.734378,-0.55878 -1.936081,-0.55878 -2.67046,0 -0.734373,0.55878 -0.133517,1.01595 1.33523,1.01595 1.468751,0 2.069605,-0.45717 1.33523,-1.01595 z m -5.340918,-2.01426 c -0.734374,-0.55878 -1.936081,-0.55878 -2.670454,0 -0.734379,0.55876 -0.133532,1.01597 1.335228,1.01597 1.468752,0 2.069604,-0.45721 1.335226,-1.01597 z m -5.895336,-2.07609 c -1.039309,-0.51071 -2.481355,-0.47713 -3.204548,0.0746 -0.723196,0.55174 0.127149,0.9696 1.88965,0.92853 1.762503,-0.0411 2.354208,-0.49249 1.314898,-1.00316 z"
       id="path81"
       inkscape:connector-curvature="0" />
    <path
       style="fill:#00000b;fill-opacity:0.03921569;stroke-width:1.46682703"
       d="m 62.96533,146.16959 c -4.700007,-3.0672 -9.867342,-6.59481 -11.482969,-7.83915 l -2.937505,-2.26239 V 113.8615 c 0,-12.21359 0.195536,-22.206515 0.434521,-22.206515 0.238986,0 3.672938,2.739832 7.631011,6.088536 3.958074,3.348699 7.378246,5.745829 7.600388,5.326959 0.222143,-0.4189 -3.211813,-3.734362 -7.631014,-7.367683 -4.419197,-3.633329 -8.034906,-7.333217 -8.034906,-8.221967 0,-0.888763 3.238608,1.153072 7.196905,4.537451 3.958297,3.384361 9.800375,8.324509 12.982395,10.978109 3.182018,2.65359 5.515928,5.33299 5.186468,5.95428 -0.329465,0.62122 -2.130409,-0.36372 -4.002102,-2.18888 -1.871699,-1.82512 -3.603659,-2.9402 -3.848802,-2.47793 -0.245142,0.46226 1.481915,2.47957 3.83791,4.48293 l 4.283622,3.64244 v 19.83652 c 0,14.61599 -0.351401,19.79231 -1.335229,19.66854 -0.734376,-0.0925 -5.180686,-2.67754 -9.880693,-5.7447 z"
       id="path83"
       inkscape:connector-curvature="0" />
    <path
       style="fill:#00000b;fill-opacity:0.03921569;stroke-width:1.46682703"
       d="m 63.499421,146.70762 c -5.581256,-3.79801 -11.229277,-7.42057 -12.551152,-8.05009 -2.317766,-1.10378 -2.403413,-1.96935 -2.403413,-24.28909 0,-21.238898 0.153911,-23.027892 1.869322,-21.728612 4.127176,3.125995 4.883032,2.998252 1.602274,-0.270777 -6.37057,-6.347829 -3.571266,-6.673383 3.73864,-0.434809 3.965633,3.384424 9.678928,8.236118 12.696212,10.781528 l 5.485969,4.62801 0.171626,23.37638 c 0.09439,12.857 0.02912,23.26759 -0.14506,23.13468 -0.174171,-0.13295 -4.883163,-3.34919 -10.464418,-7.14722 z m 6.409101,-39.94583 c -1.468756,-1.58322 -3.151144,-2.8786 -3.738643,-2.8786 -0.5875,0 0.133517,1.29538 1.602274,2.8786 1.468751,1.58327 3.151139,2.87862 3.738641,2.87862 0.587501,0 -0.133518,-1.29535 -1.602272,-2.87862 z m -8.545469,-7.049824 c -2.056251,-2.122818 -4.219322,-3.859657 -4.806822,-3.859657 -0.587501,0 0.614205,1.736839 2.670459,3.859657 2.056252,2.122784 4.219321,3.859624 4.806823,3.859624 0.5875,0 -0.614207,-1.73684 -2.67046,-3.859624 z"
       id="path85"
       inkscape:connector-curvature="0" />
  </g>
</svg>
